<?xml version="1.0" standalone="no"?>
<!DOCTYPE svg PUBLIC "-//W3C//DTD SVG 20010904//EN"
 "http://www.w3.org/TR/2001/REC-SVG-20010904/DTD/svg10.dtd">
<svg version="1.0" xmlns="http://www.w3.org/2000/svg"
 width="512.000000pt" height="512.000000pt" viewBox="0 0 512.000000 512.000000"
 preserveAspectRatio="xMidYMid meet">
<metadata>
Created by potrace 1.14, written by Peter Selinger 2001-2017
</metadata>
<g transform="translate(0.000000,512.000000) scale(0.100000,-0.100000)"
fill="#000000" stroke="none">
<path d="M10 5085 c0 -8 8 -15 18 -15 13 0 14 2 3 9 -11 7 -11 9 0 14 10 4 9
6 -3 6 -10 1 -18 -6 -18 -14z"/>
<path d="M60 5075 c0 -20 -5 -25 -25 -25 -22 0 -24 -2 -13 -14 8 -9 15 -10 19
-4 4 6 12 7 18 4 7 -5 11 5 11 28 0 20 -2 36 -5 36 -3 0 -5 -11 -5 -25z"/>
<path d="M82 5075 c2 -26 25 -36 25 -10 0 8 -5 15 -11 15 -6 0 -4 5 4 10 13 8
12 10 -2 10 -13 0 -17 -7 -16 -25z"/>
<path d="M80 5027 c0 -10 8 -17 18 -17 9 0 13 4 7 8 -5 4 -13 11 -17 16 -5 5
-8 2 -8 -7z"/>
<path d="M14 4988 c-10 -13 -12 -17 -4 -11 11 10 17 10 29 0 14 -10 14 -10 4
4 -7 9 -10 19 -6 22 3 4 4 7 1 7 -3 0 -13 -10 -24 -22z"/>
<path d="M2114 4426 c-3 -9 0 -23 7 -32 10 -12 10 -14 0 -12 -8 2 -24 -29 -42
-82 -16 -46 -35 -98 -43 -115 -15 -33 -80 -227 -114 -340 -11 -38 -37 -137
-57 -220 -42 -177 -38 -160 -121 -485 -90 -353 -104 -438 -114 -680 -9 -199
-25 -305 -52 -338 -15 -17 2 -28 55 -37 44 -8 134 20 147 46 5 9 13 50 18 91
12 91 53 180 101 216 49 38 86 129 116 290 15 75 33 169 41 207 23 109 64 324
74 390 5 33 16 103 24 155 9 52 16 130 16 174 0 43 7 104 15 135 27 106 58
306 62 407 6 119 1 131 -74 199 -43 38 -54 44 -59 31z m-204 -1930 c0 -2 -8
-10 -17 -17 -16 -13 -17 -12 -4 4 13 16 21 21 21 13z m-40 -30 c0 -2 -8 -10
-17 -17 -16 -13 -17 -12 -4 4 13 16 21 21 21 13z"/>
<path d="M975 4273 c-140 -4 -479 -34 -502 -43 -20 -8 -23 -17 -23 -65 0 -46
-13 -90 -74 -243 -40 -103 -81 -216 -90 -252 -9 -36 -23 -78 -30 -95 -24 -54
-28 -110 -8 -128 24 -22 113 -44 277 -67 77 -11 196 -29 265 -40 172 -26 494
-59 616 -63 l102 -3 5 48 c4 30 16 61 33 84 21 27 28 48 28 82 1 43 -1 48 -34
63 -76 36 -720 118 -934 119 l-29 0 5 103 c7 116 27 185 81 270 33 51 40 56
79 61 24 3 229 8 457 11 228 3 415 6 417 8 1 1 3 36 5 77 l4 75 -285 1 c-157
0 -321 -1 -365 -3z m-295 -147 c0 -2 -8 -10 -17 -17 -16 -13 -17 -12 -4 4 13
16 21 21 21 13z m840 -700 c0 -2 -8 -10 -17 -17 -16 -13 -17 -12 -4 4 13 16
21 21 21 13z"/>
<path d="M2935 3758 c-360 -12 -435 -32 -621 -163 -58 -42 -60 -45 -56 -80 3
-28 12 -41 33 -54 16 -9 29 -23 29 -31 0 -8 -12 -60 -26 -115 -43 -166 -45
-184 -47 -365 -2 -195 3 -217 60 -256 70 -47 266 -74 586 -81 136 -3 237 -10
237 -15 0 -15 52 -5 61 12 26 52 39 93 39 125 0 56 -14 73 -68 81 -143 20
-509 125 -579 167 -18 10 -45 39 -60 64 -25 44 -26 47 -19 170 8 137 27 206
67 235 41 31 135 58 198 58 70 0 127 -11 267 -51 56 -16 120 -29 144 -29 l42
0 -7 68 c-4 37 -13 102 -20 145 -8 44 -11 85 -9 92 11 26 -34 31 -251 23z
m-385 -271 c0 -2 -10 -12 -22 -23 l-23 -19 19 23 c18 21 26 27 26 19z m-239
-754 c13 -16 12 -17 -3 -4 -17 13 -22 21 -14 21 2 0 10 -8 17 -17z"/>
<path d="M1220 3111 c-25 -5 -112 -13 -195 -20 -82 -6 -180 -16 -217 -21 -37
-6 -148 -10 -246 -10 -154 0 -181 2 -186 16 -5 13 -10 13 -36 -6 -28 -20 -30
-26 -30 -80 0 -50 3 -61 22 -71 17 -9 156 -26 236 -29 9 0 10 -5 2 -19 -6 -12
-10 -96 -10 -204 l0 -184 39 -6 c22 -3 64 -16 93 -30 71 -33 157 -57 205 -57
37 0 41 3 61 48 33 73 52 134 52 166 0 45 29 195 47 246 13 36 35 76 59 109 2
2 33 -11 70 -28 36 -17 81 -31 99 -31 28 0 34 5 51 42 12 28 19 65 19 108 l0
65 -45 2 c-25 0 -65 -2 -90 -6z"/>
<path d="M2393 2319 c-63 -24 -90 -58 -106 -134 -10 -49 -9 -62 7 -103 27 -69
31 -153 11 -262 -18 -97 -30 -128 -63 -166 -18 -21 -29 -22 -248 -27 -195 -4
-241 -8 -309 -27 -44 -12 -93 -25 -110 -29 -37 -8 -41 -37 -6 -33 l25 2 -22
-23 c-53 -56 -18 -70 104 -41 61 14 79 14 193 -1 161 -21 324 -61 426 -106 94
-41 134 -49 236 -49 118 0 161 10 202 49 24 22 28 32 25 74 l-3 49 -70 23
c-38 13 -90 29 -114 35 l-44 12 6 150 c5 112 3 163 -8 203 -13 50 -12 58 17
156 16 57 33 109 38 114 4 6 15 33 24 62 27 80 15 93 -82 92 -52 0 -94 -7
-129 -20z m22 -489 c-14 -15 -21 -17 -32 -9 -7 6 -13 14 -13 16 0 3 6 0 14 -6
10 -9 16 -8 26 4 7 8 15 15 18 15 3 0 -3 -9 -13 -20z m36 -26 c-11 -15 -21
-24 -21 -20 0 10 34 55 39 51 2 -2 -6 -16 -18 -31z m45 -22 c-14 -15 -15 -13
-3 17 8 23 13 28 15 16 2 -10 -3 -25 -12 -33z m-223 -157 c-3 -9 -8 -14 -10
-11 -3 3 -2 9 2 15 9 16 15 13 8 -4z m-638 -125 c-28 -12 -37 -12 -30 0 3 6
16 10 28 9 21 0 21 -1 2 -9z m1095 -83 c0 -2 -12 -14 -27 -28 l-28 -24 24 28
c23 25 31 32 31 24z"/>
<path d="M4405 2231 c-3 -5 -1 -12 5 -16 5 -3 10 1 10 9 0 18 -6 21 -15 7z"/>
<path d="M1253 2065 c-48 -25 -101 -53 -118 -63 -16 -9 -61 -36 -100 -59 -144
-85 -224 -151 -386 -315 -104 -105 -173 -168 -186 -168 -24 0 -63 -40 -63 -64
0 -10 9 -20 19 -23 12 -3 17 -11 14 -20 -5 -13 5 -14 73 -9 182 15 173 12 200
70 13 28 24 59 24 68 0 9 5 20 10 23 6 3 10 1 10 -4 0 -20 54 -98 114 -164 59
-65 92 -119 169 -272 22 -44 48 -89 57 -100 10 -11 22 -33 27 -50 9 -29 12
-30 74 -33 97 -5 216 26 241 62 13 19 9 73 -7 86 -8 7 -25 10 -38 7 -20 -6
-27 3 -66 76 -86 161 -171 279 -284 394 l-111 113 28 29 c16 16 99 69 185 118
175 98 257 166 267 219 8 42 -10 88 -41 108 -22 14 -29 12 -112 -29z m117 -88
c0 -1 -24 -25 -52 -52 l-53 -50 50 53 c46 48 55 57 55 49z m-240 -171 c0 -2
-8 -10 -17 -17 -16 -13 -17 -12 -4 4 13 16 21 21 21 13z m-317 -71 c-3 -9 -8
-14 -10 -11 -3 3 -2 9 2 15 9 16 15 13 8 -4z m157 -18 c0 -2 -17 -19 -37 -38
l-38 -34 34 38 c33 34 41 42 41 34z m20 -204 l75 -78 -77 75 c-72 69 -83 80
-75 80 1 0 36 -35 77 -77z m-340 64 c0 -2 -10 -12 -22 -23 l-23 -19 19 23 c18
21 26 27 26 19z m-50 -51 c0 -2 -8 -10 -17 -17 -16 -13 -17 -12 -4 4 13 16 21
21 21 13z m260 -121 c13 -14 21 -25 18 -25 -2 0 -15 11 -28 25 -13 14 -21 25
-18 25 2 0 15 -11 28 -25z m271 -42 c13 -16 12 -17 -3 -4 -10 7 -18 15 -18 17
0 8 8 3 21 -13z m-186 -53 c10 -11 16 -20 13 -20 -3 0 -13 9 -23 20 -10 11
-16 20 -13 20 3 0 13 -9 23 -20z m226 -7 c13 -16 12 -17 -3 -4 -10 7 -18 15
-18 17 0 8 8 3 21 -13z m180 -300 c13 -16 12 -17 -3 -4 -17 13 -22 21 -14 21
2 0 10 -8 17 -17z m-226 -13 c10 -11 16 -20 13 -20 -3 0 -13 9 -23 20 -10 11
-16 20 -13 20 3 0 13 -9 23 -20z m280 10 c3 -5 1 -10 -4 -10 -6 0 -11 5 -11
10 0 6 2 10 4 10 3 0 8 -4 11 -10z m-24 -37 c13 -16 12 -17 -3 -4 -17 13 -22
21 -14 21 2 0 10 -8 17 -17z"/>
<path d="M2191 1164 c-26 -33 -40 -82 -48 -166 -7 -80 6 -107 69 -139 40 -21
50 -21 257 -14 119 4 240 7 269 7 60 0 63 5 59 98 l-2 55 -70 -3 c-38 -2 -104
-8 -145 -13 -181 -22 -186 -22 -172 -8 6 7 12 28 12 46 0 19 -6 35 -12 37 -7
2 -32 9 -54 15 -27 7 -59 29 -92 61 l-51 50 -20 -26z m199 -147 c0 -2 -10 -12
-22 -23 l-23 -19 19 23 c18 21 26 27 26 19z"/>
</g>
</svg>
